HIERARCHY
ROOT root
{
	OFFSET	0	13.1	24.9
	CHANNELS 6  Xposition Yposition Zposition Xrotation Yrotation Zrotation
	JOINT spine_1
	{
		OFFSET	0	9.99999	0
		CHANNELS 3  Xrotation Yrotation Zrotation
		JOINT spine_2
		{
			OFFSET	0	112	-10
			CHANNELS 3  Xrotation Yrotation Zrotation
			JOINT spine_3
			{
				OFFSET	0	206.5	19.3
				CHANNELS 3  Xrotation Yrotation Zrotation
				JOINT spine_4
				{
					OFFSET	0	110.4	14.6
					CHANNELS 3  Xrotation Yrotation Zrotation
					JOINT neck_1
					{
						OFFSET	0	71.8	-50.3
						CHANNELS 3  Xrotation Yrotation Zrotation
						JOINT neck_2
						{
							OFFSET	0	86.2	-25.8
							CHANNELS 3  Xrotation Yrotation Zrotation
							JOINT head_ee
							{
								OFFSET	0	179.8	-8.7
								CHANNELS 3  Xrotation Yrotation Zrotation
								End Site
								{
									OFFSET	1	0	0
								}
							}
						}
					}
					JOINT left_clavicle
					{
						OFFSET	-43.2	22.4	-70.8
						CHANNELS 3  Xrotation Yrotation Zrotation
						JOINT left_shoulder
						{
							OFFSET	-93.9	-5.79999	48.7
							CHANNELS 3  Xrotation Yrotation Zrotation
							JOINT left_elbow
							{
								OFFSET	-291.4	-30.8	15.2
								CHANNELS 3  Xrotation Yrotation Zrotation
								JOINT left_lowarm_twist
								{
									OFFSET	-110.7	-3.89999	13.6
									CHANNELS 3  Xrotation Yrotation Zrotation
									JOINT left_hand
									{
										OFFSET	-110.7	-3.89999	13.6
										CHANNELS 3  Xrotation Yrotation Zrotation
										JOINT left_ee
										{
											OFFSET	-80.8	-5.10001	12.1
											CHANNELS 3  Xrotation Yrotation Zrotation
											End Site
											{
												OFFSET	1	0	0
											}
										}
									}
								}
							}
						}
					}
					JOINT right_clavicle
					{
						OFFSET	43.2	22.4	-70.8
						CHANNELS 3  Xrotation Yrotation Zrotation
						JOINT right_shoulder
						{
							OFFSET	93.9	-5.79999	48.7
							CHANNELS 3  Xrotation Yrotation Zrotation
							JOINT right_elbow
							{
								OFFSET	291.4	-30.8	15.2
								CHANNELS 3  Xrotation Yrotation Zrotation
								JOINT right_lowarm_twist
								{
									OFFSET	110.7	-3.89999	13.6
									CHANNELS 3  Xrotation Yrotation Zrotation
									JOINT right_hand
									{
										OFFSET	110.7	-3.89999	13.6
										CHANNELS 3  Xrotation Yrotation Zrotation
										JOINT right_ee
										{
											OFFSET	80.8	-5.10001	12.1
											CHANNELS 3  Xrotation Yrotation Zrotation
											End Site
											{
												OFFSET	1	0	0
											}
										}
									}
								}
							}
						}
					}
				}
			}
		}
	}
	JOINT left_hip
	{
		OFFSET	-82.8	-127.5	0.300001
		CHANNELS 3  Xrotation Yrotation Zrotation
		JOINT left_knee
		{
			OFFSET	-28.2	-396.7	2.2
			CHANNELS 3  Xrotation Yrotation Zrotation
			JOINT left_ankle
			{
				OFFSET	-11.7	-411.3	35.4
				CHANNELS 3  Xrotation Yrotation Zrotation
				JOINT left_toes
				{
					OFFSET	0	-60	-88.6
					CHANNELS 3  Xrotation Yrotation Zrotation
					JOINT left_foot_ee
					{
						OFFSET	-22.5	-16.5	-42.2
						CHANNELS 3  Xrotation Yrotation Zrotation
						End Site
						{
							OFFSET	1	0	0
						}
					}
				}
			}
		}
	}
	JOINT right_hip
	{
		OFFSET	82.8	-127.5	0.300001
		CHANNELS 3  Xrotation Yrotation Zrotation
		JOINT right_knee
		{
			OFFSET	28.2	-396.7	2.2
			CHANNELS 3  Xrotation Yrotation Zrotation
			JOINT right_ankle
			{
				OFFSET	11.7	-411.3	35.4
				CHANNELS 3  Xrotation Yrotation Zrotation
				JOINT right_toes
				{
					OFFSET	0	-60	-88.6
					CHANNELS 3  Xrotation Yrotation Zrotation
					JOINT right_foot_ee
					{
						OFFSET	22.5	-16.5	-42.2
						CHANNELS 3  Xrotation Yrotation Zrotation
						End Site
						{
							OFFSET	1	0	0
						}
					}
				}
			}
		}
	}
}
MOTION
Frames: 8
Frame Time: 0.02
2660.03 682.205 -1109.72 -12.3515 45.1883 6.41374 2.2266 0.420327 2.77505 2.23085 0.242963 2.79615 2.24234 -0.241016 2.79631 2.23149 0.203456 2.79929 10.2204 19.2997 -0.860658 12.2221 32.495 -1.6089 -0.0 0.0 -0.0 -6.17025 18.2424 -7.32373 -19.4592 -24.7125 78.5667 0.906275 -24.177 0.194102 8.50238 0.221065 -1.0626 2.05097 24.5268 21.9719 -0.0 0.0 -0.0 12.4021 20.4711 -24.8252 4.00802 13.09 -65.9591 1.60865 38.5476 -0.562547 44.0346 0.575578 5.4592 3.26723 23.5314 -11.4174 0.0 0.0 0.0 36.9268 18.2994 -7.42921 -5.16079 0.177818 0.771801 7.73318 5.7198 -1.10843 -32.2635 0.0 0.0 -0.0 0.0 -0.0 0.587809 -1.3951 11.1782 -22.5962 -0.255774 -3.43571 36.0376 19.5826 4.96043 7.74272 -0.0 -0.0 0.0 0.0 0.0 
2632.26 684.299 -1112.04 -11.5161 45.2134 5.70618 2.06745 0.372378 2.86546 2.07199 0.189365 2.88333 2.08129 -0.316958 2.87211 2.0698 0.140421 2.88612 9.3184 19.4876 -0.56081 11.2523 32.81 -1.08126 -0.0 0.0 -0.0 -6.07441 18.367 -7.13809 -17.9775 -24.6477 78.3281 0.942363 -25.0237 0.209126 8.63504 0.223258 -1.0794 1.84687 24.9708 20.8246 -0.0 0.0 -0.0 12.1482 20.376 -24.2473 3.28966 12.5887 -66.3256 1.45738 35.825 -0.471095 44.8565 0.625667 5.55168 3.39568 24.4052 -11.8075 0.0 0.0 0.0 35.8674 19.2141 -6.7745 -5.96129 0.199139 0.892798 9.17115 5.77742 -1.30822 -31.6893 0.0 0.0 -0.0 0.0 -0.0 -1.19569 0.567582 11.9326 -22.0676 -0.265347 -3.35516 35.5893 17.0744 4.82207 7.89857 -0.0 -0.0 0.0 0.0 0.0 
2609.5 681.99 -1116.04 -11.4854 45.0382 4.9767 2.1886 0.319493 2.96324 2.19348 0.130372 2.97755 2.1998 -0.385477 2.95539 2.18762 0.0858952 2.97917 9.32466 19.6337 -0.757339 11.3287 33.2285 -1.34857 -0.0 0.0 -0.0 -6.07445 17.6484 -7.34194 -17.0675 -24.6626 78.1228 0.975411 -25.7889 0.223305 8.77145 0.225472 -1.09669 1.73039 25.2989 20.1991 -0.0 0.0 -0.0 12.0648 20.0899 -24.0764 2.57791 12.1776 -66.732 1.32294 33.2371 -0.394868 45.3868 0.658691 5.61097 3.42843 24.7768 -11.8261 0.0 0.0 0.0 34.8986 19.1174 -5.64684 -6.26245 0.206722 0.938393 10.1799 4.78719 -1.44818 -31.2088 0.0 0.0 -0.0 0.0 -0.0 -2.44111 1.98927 13.2033 -22.307 -0.261103 -3.39165 35.9877 15.3546 4.80439 8.0233 -0.0 -0.0 0.0 0.0 0.0 
2578.33 688.964 -1128.87 -11.0414 45.7293 5.02675 2.18686 0.203909 2.83646 2.19133 0.0230785 2.84368 2.19199 -0.468534 2.80494 2.18102 -0.0198518 2.84371 10.1997 19.8832 -1.0746 12.3823 33.6615 -1.94855 -0.0 0.0 -0.0 -5.0623 20.4584 -5.02884 -13.6226 -22.2529 74.2989 0.866233 -23.2243 0.178006 7.33021 0.200001 -0.914353 0.896614 25.5095 15.2886 -0.0 0.0 -0.0 11.8928 19.6914 -23.7097 0.643885 11.2651 -67.6683 1.11482 28.9088 -0.287374 45.1239 0.64225 5.58161 3.07262 24.7846 -9.48555 0.0 0.0 0.0 32.6883 18.8585 -4.27402 -7.07031 0.225878 1.06089 12.8443 9.52997 -1.80794 -30.4146 0.0 0.0 -0.0 0.0 -0.0 -5.10131 9.97541 10.7674 -22.8198 -0.251502 -3.46975 35.1194 2.29681 4.45147 6.91113 -0.0 -0.0 0.0 0.0 0.0 
2555.34 697.073 -1128.63 -10.6109 46.7679 4.72485 2.12541 0.185497 2.73739 2.12958 0.0110006 2.74364 2.12971 -0.466077 2.70382 2.11951 -0.0333778 2.74346 10.2042 20.0327 -0.474949 12.3027 33.3683 -1.18476 -0.0 0.0 -0.0 -3.70029 17.1267 -3.73582 -14.8069 -22.4323 73.3182 0.90955 -24.2543 0.195445 7.16811 0.196849 -0.893886 1.14596 25.0295 16.6136 -0.0 0.0 -0.0 11.8407 20.1693 -23.5568 -2.4212 10.6718 -66.8474 1.03054 27.0436 -0.247832 44.8953 0.628066 5.55603 3.64292 26.39 -12.3615 0.0 0.0 0.0 31.5944 19.3678 -3.19978 -8.97535 0.264194 1.3507 14.4073 6.0823 -2.01539 -29.8898 0.0 0.0 -0.0 0.0 -0.0 -5.29901 10.1497 11.3642 -23.74 -0.232518 -3.60969 38.807 4.69724 4.82298 7.89186 -0.0 -0.0 0.0 0.0 0.0 
2518.0 708.764 -1150.17 -7.96541 47.9329 3.51341 2.16078 0.227567 2.71676 2.16488 0.0542967 2.72573 2.16707 -0.418517 2.69397 2.15694 0.012034 2.72624 9.92313 19.4691 0.199292 11.7501 31.9103 -0.207306 -0.0 0.0 -0.0 -3.81817 18.5403 -3.61194 -14.5279 -21.7945 71.5445 0.821813 -22.1512 0.160873 5.87371 0.169608 -0.730785 0.669198 23.367 13.2621 -0.0 0.0 -0.0 11.3238 16.7702 -22.5839 -6.50387 9.33359 -69.2876 0.970896 25.6849 -0.221344 43.5257 0.545238 5.40159 3.8239 28.125 -12.5728 0.0 0.0 0.0 25.7447 18.9357 -2.50767 -8.8942 0.262759 1.33833 17.517 7.4044 -2.4183 -28.2254 0.0 0.0 -0.0 0.0 -0.0 -1.83451 15.2326 6.89477 -36.4567 0.256867 -5.49585 39.5094 -0.171166 4.83228 10.513 -0.0 -0.0 0.0 0.0 0.0 
2488.47 714.509 -1166.29 -6.84164 49.1318 3.20645 2.27978 0.236684 2.65661 2.28371 0.0672184 2.66628 2.28634 -0.389974 2.63848 2.27663 0.0314649 2.66694 12.1342 18.6271 0.323869 13.8466 29.7272 -0.266835 -0.0 0.0 -0.0 -4.31068 18.9358 -4.27294 -12.7271 -21.0506 71.7819 0.817663 -22.0501 0.159311 5.30685 0.156518 -0.659556 0.350133 23.8792 11.5571 -0.0 0.0 -0.0 11.3009 16.0465 -22.5657 -9.26128 5.38707 -70.5275 0.807103 21.7922 -0.155369 44.6902 0.615427 5.53303 3.35038 23.8683 -11.7916 0.0 0.0 0.0 22.8031 18.6903 -2.28931 -9.20584 0.268176 1.38584 19.9028 8.67083 -2.71961 -27.1957 0.0 0.0 -0.0 0.0 -0.0 0.00215166 17.8768 3.99336 -42.1869 0.611728 -6.30168 39.9514 -1.69855 4.86145 11.964 -0.0 -0.0 0.0 0.0 0.0 
2468.56 713.774 -1174.53 -5.37815 48.7679 2.59871 2.27291 0.42932 2.48108 2.2763 0.270623 2.50335 2.28782 -0.161403 2.51275 2.27909 0.237337 2.50672 9.16676 17.9011 0.810935 10.5485 28.9658 0.806391 -0.0 0.0 -0.0 -3.76956 18.925 -3.45394 -10.2601 -21.5415 68.9977 0.931141 -24.7616 0.204402 5.03684 0.150036 -0.625674 -0.207975 22.923 7.95196 -0.0 0.0 -0.0 11.3072 17.9978 -22.4806 -11.7089 5.66443 -71.4486 0.737457 20.068 -0.130487 42.7687 0.501055 5.31541 3.31717 26.03 -10.4299 0.0 0.0 0.0 22.0313 17.287 -3.39951 -12.8796 0.31251 1.9477 22.6355 10.4773 -3.058 -25.7266 0.0 0.0 -0.0 0.0 -0.0 1.21692 23.4894 1.27198 -44.9434 0.81083 -6.676 40.092 -4.06722 4.86634 14.1095 -0.0 -0.0 0.0 0.0 0.0 
